<?xml version="1.0" encoding="utf-8"?>
<!-- Generator: Adobe Illustrator 20.0.0, SVG Export Plug-In . SVG Version: 6.00 Build 0)  -->
<svg version="1.1" id="Layer_1" xmlns="http://www.w3.org/2000/svg" xmlns:xlink="http://www.w3.org/1999/xlink" x="0px" y="0px"
	 viewBox="0 0 235 43" style="enable-background:new 0 0 235 43;" xml:space="preserve">
<style type="text/css">
	.st0{fill:#F2D421;}
	.st1{fill:#F0EFEF;}
	.st2{opacity:0.7;fill:#CCCCCB;}
	.st3{font-family:'OpenSansCondensed-LightItalic';}
	.st4{font-size:15.343px;}
</style>
<path class="st0" d="M15.5,1l13.9-0.5c2.5-0.1,4.9,1.2,6.2,3.4l7.9,12.9c1,1.6,1.1,3.5,0.4,5.2l-4.2,10c-0.3,0.8-1.4,0.8-1.8,0.2
	l-3.2-5c-0.6-0.9-0.6-2-0.2-2.9l1.5-3.2c0.4-0.8,0.4-1.7,0.1-2.6l-0.1-0.4c-0.3-0.7-0.6-1.4-1-2.1l-3.5-5.7
	c-0.6-0.8-2.2-1.8-3.2-1.9l-3.7-0.7c-0.8-0.1-1.5,1.1-1.1,1.7l5,7.9c0.6,1,0.7,2.2,0.3,3.3l-1.1,2.6c-0.3,0.8-0.9,1.5-1.7,2h0
	c-0.4,0.3-0.9,0.4-1.3,0.4l-1.5,0.1l-1.6,0.2c-1,0-2.5-0.8-3-1.6l-5.3-8.2c-0.5-0.7-1.6-0.6-1.9,0.2L10,20.2
	c-0.4,1.1-0.3,2.4,0.4,3.4l4.2,6.5c0.6,0.9,1.6,1.6,2.7,1.7l4.1,0.4c1.2,0.1,2.3,0.8,2.9,1.8l3,4.6c0.5,0.8,0,1.9-1,1.9l-10.4,0.2
	c-1.3,0-2.6-0.3-3.7-0.9l-0.1,0c-1.3-0.7-2.4-1.6-3.2-2.9l-7-11c-0.6-0.9-1-1.9-1.1-3l0,0c-0.3-2.2,0.1-4.5,1.2-6.5L8.2,5.4
	C9.7,2.8,12.5,1.1,15.5,1z"/>
<g>
	<path class="st1" d="M49.1,2.6h5.5l7.9,19l0.1,0l7.5-19.1h5.3v22.9h-3.2V6.2H72l-7.9,19.3h-3.3L52.6,6.2h-0.2v19.3h-3.3V2.6z"/>
	<path class="st1" d="M86.7,2.6H91l9.6,22.9h-3.8l-2.8-6.9H83.3l-2.8,6.9h-3.6L86.7,2.6z M93,16.2L88.8,5.9h-0.3l-4.2,10.3H93z"/>
	<path class="st1" d="M99.6,25.5v-2.3l4.1,0.4c1,0,1.8-0.1,2.3-0.2c0.5-0.1,0.8-0.4,1-0.8c0.2-0.4,0.3-1.1,0.3-1.9v-18h3.7v17.8
		c0,1.4-0.2,2.5-0.7,3.3c-0.4,0.8-1.1,1.3-2.1,1.5c-1,0.3-2.3,0.4-4.1,0.4C103.7,25.7,102.2,25.6,99.6,25.5z"/>
	<path class="st1" d="M114.3,19.7V8.8c0-4.4,3.5-6.6,10.4-6.6c2.4,0,4.6,0.2,6.8,0.7v2.5c-2.4-0.6-4.7-0.8-6.7-0.8
		c-1,0-1.9,0.1-2.6,0.2s-1.4,0.3-2.1,0.5c-1.5,0.6-2.2,1.7-2.2,3.5v10.7c0,2.6,2.4,3.9,7.1,3.9c2,0,4.3-0.3,6.7-0.8v2.6
		c-2.2,0.4-4.5,0.7-6.9,0.7C117.8,25.9,114.3,23.8,114.3,19.7z"/>
	<path class="st1" d="M140.3,5H132V2.6h20.4V5H144v20.5h-3.7V5z"/>
	<path class="st1" d="M153.5,19.7V8.8c0-4.4,3.4-6.6,10.3-6.6c7,0,10.5,2.2,10.5,6.5v10.9c0,2.2-1,3.8-2.9,4.8
		c-1.9,1-4.4,1.4-7.6,1.4C157,25.9,153.5,23.8,153.5,19.7z M170.7,19.6V8.7c0-2.8-2.3-4.2-6.8-4.2c-2.2,0-3.9,0.3-5.1,1
		c-1.2,0.6-1.8,1.7-1.8,3.3v10.9c0,2.6,2.3,3.9,6.9,3.9C168.5,23.6,170.7,22.3,170.7,19.6z"/>
	<path class="st1" d="M177.7,2.6h8.1c1.1,0,2.1,0,2.8,0.1c0.7,0,1.4,0.2,2.2,0.3c0.8,0.2,1.5,0.4,2,0.7c0.5,0.3,0.9,0.8,1.3,1.3
		c0.3,0.5,0.5,1.2,0.5,2v4.8c0,1.9-0.8,3.3-2.4,4.1c-1.6,0.8-3.9,1.3-7,1.3h-3.7v8.2h-3.7V2.6z M185.6,15.1c1.6,0,2.9-0.3,3.8-0.8
		c1-0.5,1.4-1.4,1.4-2.6V7.6c0-0.6-0.2-1.2-0.5-1.6c-0.4-0.4-0.9-0.7-1.5-0.9c-0.6-0.1-1.2-0.2-1.6-0.3c-0.4,0-1-0.1-1.7-0.1h-4.1
		v10.3H185.6z"/>
	<path class="st1" d="M213.9,2.6v22.9h-3.7v-8.8c-2,0.9-4.1,1.4-6.5,1.4c-2.6,0-4.4-0.5-5.5-1.4c-1.1-1-1.7-2.4-1.7-4.3V2.6h3.6v9.5
		c0,1.3,0.4,2.2,1.1,2.8c0.7,0.6,1.8,0.8,3.4,0.8c1.2,0,2.2-0.1,3.1-0.4c0.9-0.2,1.7-0.6,2.5-1.1V2.6H213.9z"/>
	<path class="st1" d="M218,2.6h16.6V5h-12.9v7.5h11.6v2.4h-11.6v8.2H235v2.4h-17V2.6z"/>
</g>
<text transform="matrix(1.461 0 0 1 46.078 39.0851)" class="st2 st3 st4">најди мајстор, брзо и лесно</text>
</svg>
