<?xml version="1.0" encoding="utf-8"?>
<!-- Generator: Adobe Illustrator 20.0.0, SVG Export Plug-In . SVG Version: 6.00 Build 0)  -->
<svg version="1.1" id="Layer_1" xmlns="http://www.w3.org/2000/svg" xmlns:xlink="http://www.w3.org/1999/xlink" x="0px" y="0px"
	 viewBox="0 0 32 32" style="enable-background:new 0 0 32 32;" xml:space="preserve">
<style type="text/css">
	.st0{fill:#3E3E3E;}
</style>
<g>
	<g>
		<g>
			<path class="st0" d="M16.2,31.3C7.8,31.3,0.9,24.4,0.9,16S7.8,0.7,16.2,0.7S31.5,7.6,31.5,16S24.6,31.3,16.2,31.3z M16.2,2.1
				C8.5,2.1,2.3,8.3,2.3,16s6.2,13.9,13.9,13.9c7.7,0,13.9-6.2,13.9-13.9S23.9,2.1,16.2,2.1z"/>
		</g>
	</g>
	<g>
		<path class="st0" d="M19.7,16.4h-2.3v7.4h-3.4v-7.4h-1.6v-2.9h1.6v-1.9c0-1.3,0.6-3.5,3.5-3.5l2.5,0V11h-1.8
			c-0.3,0-0.7,0.2-0.7,0.8v1.7H20L19.7,16.4z M20.1,16.5"/>
	</g>
</g>
</svg>
