<?xml version="1.0" encoding="utf-8"?>
<!-- Generator: Adobe Illustrator 20.0.0, SVG Export Plug-In . SVG Version: 6.00 Build 0)  -->
<svg version="1.1" id="Layer_1" xmlns="http://www.w3.org/2000/svg" xmlns:xlink="http://www.w3.org/1999/xlink" x="0px" y="0px"
	 viewBox="0 0 32 32" style="enable-background:new 0 0 32 32;" xml:space="preserve">
<style type="text/css">
	.st0{fill:#404040;}
</style>
<g>
	<g>
		<g>
			<path class="st0" d="M16,31.2C7.6,31.2,0.8,24.4,0.8,16S7.6,0.8,16,0.8S31.2,7.6,31.2,16S24.4,31.2,16,31.2z M16,2.2
				C8.4,2.2,2.2,8.4,2.2,16S8.4,29.8,16,29.8S29.8,23.6,29.8,16S23.6,2.2,16,2.2z"/>
		</g>
	</g>
	<g>
		<g>
			<path class="st0" d="M19.5,8.2h-7c-2.4,0-4.3,1.9-4.3,4.3v7c0,2.4,1.9,4.3,4.3,4.3h7c2.4,0,4.3-1.9,4.3-4.3v-7
				C23.9,10.1,21.9,8.2,19.5,8.2z M22.6,19.5c0,1.7-1.4,3.1-3.1,3.1h-7c-1.7,0-3.1-1.4-3.1-3.1v-7c0-1.7,1.4-3.1,3.1-3.1h7
				c1.7,0,3.1,1.4,3.1,3.1V19.5z"/>
		</g>
		<g>
			<path class="st0" d="M16,11.9c-2.3,0-4.1,1.9-4.1,4.1c0,2.3,1.9,4.1,4.1,4.1c2.3,0,4.1-1.9,4.1-4.1C20.1,13.7,18.3,11.9,16,11.9z
				 M16,18.7c-1.5,0-2.7-1.2-2.7-2.7c0-1.5,1.2-2.7,2.7-2.7c1.5,0,2.7,1.2,2.7,2.7C18.7,17.5,17.5,18.7,16,18.7z"/>
		</g>
		<g>
			<circle class="st0" cx="20.3" cy="11.7" r="0.9"/>
		</g>
	</g>
</g>
</svg>
