<?xml version="1.0" encoding="utf-8"?>
<!-- Generator: Adobe Illustrator 20.0.0, SVG Export Plug-In . SVG Version: 6.00 Build 0)  -->
<svg version="1.1" id="Layer_1" xmlns="http://www.w3.org/2000/svg" xmlns:xlink="http://www.w3.org/1999/xlink" x="0px" y="0px"
	 viewBox="0 0 32 32" style="enable-background:new 0 0 32 32;" xml:space="preserve">
<style type="text/css">
	.st0{fill:#40403F;}
</style>
<g>
	<g>
		<g>
			<path class="st0" d="M16,31.2C7.6,31.2,0.8,24.4,0.8,16S7.6,0.8,16,0.8S31.2,7.6,31.2,16S24.4,31.2,16,31.2z M16,2.2
				C8.4,2.2,2.2,8.4,2.2,16S8.4,29.9,16,29.9S29.8,23.7,29.8,16S23.6,2.2,16,2.2z"/>
		</g>
	</g>
	<g>
		<g>
			<path class="st0" d="M23,17v5h-2.9v-4.7c0-1.2-0.4-2-1.5-2c-0.8,0-1.3,0.5-1.5,1.1c-0.1,0.2-0.1,0.4-0.1,0.7V22h-2.9
				c0,0,0-8,0-8.8H17v1.2c0,0,0,0,0,0h0v0c0.4-0.6,1.1-1.5,2.6-1.5C21.6,13.1,23,14.3,23,17L23,17z M9.6,22h2.9v-8.8H9.6V22z
				 M9.6,22 M12.6,10.3c0,0.8-0.7,1.5-1.5,1.5c-0.8,0-1.5-0.7-1.5-1.5c0-0.8,0.7-1.5,1.5-1.5C11.9,8.8,12.6,9.5,12.6,10.3z"/>
		</g>
	</g>
</g>
</svg>
