<?xml version="1.0" encoding="utf-8"?>
<!-- Generator: Adobe Illustrator 20.0.0, SVG Export Plug-In . SVG Version: 6.00 Build 0)  -->
<svg version="1.1" id="Layer_1" xmlns="http://www.w3.org/2000/svg" xmlns:xlink="http://www.w3.org/1999/xlink" x="0px" y="0px"
	 viewBox="0 0 43 43" style="enable-background:new 0 0 43 43;" xml:space="preserve">
<style type="text/css">
	.st0{fill:#F2D421;}
</style>
<path class="st0" d="M14.7,3l13.1-0.5c2.4-0.1,4.7,1.1,5.9,3.2l7.4,12.2c0.9,1.5,1,3.3,0.4,4.9l-4,9.5c-0.3,0.7-1.3,0.8-1.7,0.1
	l-3-4.7c-0.5-0.8-0.6-1.9-0.2-2.7l1.4-3c0.4-0.8,0.4-1.6,0.1-2.4l-0.1-0.4c-0.2-0.7-0.6-1.3-1-1.9l-3.3-5.4c-0.5-0.8-2.1-1.7-3-1.8
	l-3.5-0.7c-0.8-0.1-1.4,1-1,1.7l4.8,7.5c0.6,0.9,0.7,2.1,0.3,3.1L26.2,24c-0.3,0.8-0.9,1.4-1.6,1.9h0c-0.4,0.2-0.8,0.4-1.3,0.4
	L22,26.4l-1.5,0.2c-1,0-2.4-0.7-2.9-1.6l-5-7.8c-0.4-0.7-1.5-0.6-1.8,0.2l-1.3,3.7c-0.4,1.1-0.3,2.3,0.4,3.2l4,6.2
	c0.6,0.9,1.5,1.5,2.6,1.6l3.8,0.4c1.1,0.1,2.2,0.7,2.8,1.7l2.9,4.4c0.5,0.8,0,1.8-1,1.8L15,40.5c-1.2,0-2.4-0.3-3.5-0.8l-0.1,0
	c-1.2-0.6-2.3-1.5-3-2.7L1.7,26.6c-0.5-0.9-0.9-1.8-1.1-2.8l0,0c-0.3-2.1,0.1-4.3,1.1-6.1l6-10.5C9.2,4.7,11.8,3.1,14.7,3z"/>
</svg>
