<?xml version="1.0" encoding="utf-8"?>
<!-- Generator: Adobe Illustrator 20.0.0, SVG Export Plug-In . SVG Version: 6.00 Build 0)  -->
<svg version="1.1" id="Layer_1" xmlns="http://www.w3.org/2000/svg" xmlns:xlink="http://www.w3.org/1999/xlink" x="0px" y="0px"
	 viewBox="0 0 32 32" style="enable-background:new 0 0 32 32;" xml:space="preserve">
<style type="text/css">
	.st0{fill:#F1D521;}
</style>
<path class="st0" d="M29,24h-2.6c-0.2,0-0.4-0.2-0.4-0.4c0-0.2,0.2-0.4,0.4-0.4H29c0.8,0,1.4-0.6,1.4-1.4V9.4C30.4,8.6,29.7,8,29,8
	H3.5C2.7,8,2.1,8.6,2.1,9.4v12.4c0,0.8,0.6,1.4,1.4,1.4h21.1c0.2,0,0.4,0.2,0.4,0.4c0,0.2-0.2,0.4-0.4,0.4H3.5c-1.2,0-2.3-1-2.3-2.3
	V9.4c0-1.2,1-2.3,2.3-2.3H29c1.2,0,2.3,1,2.3,2.3v12.4C31.2,23,30.2,24,29,24z"/>
<path class="st0" d="M28.2,21.9H17.9c-0.7,0-1.2-0.5-1.2-1.2V10.4c0-0.7,0.5-1.2,1.2-1.2h10.3c0.7,0,1.2,0.5,1.2,1.2v10.3
	C29.4,21.4,28.9,21.9,28.2,21.9z M17.9,10.1c-0.2,0-0.3,0.2-0.3,0.3v10.3c0,0.2,0.2,0.3,0.3,0.3h10.3c0.2,0,0.3-0.2,0.3-0.3V10.4
	c0-0.2-0.2-0.3-0.3-0.3H17.9z"/>
<path class="st0" d="M14.5,21.9H4.2c-0.7,0-1.2-0.5-1.2-1.2V10.4c0-0.7,0.5-1.2,1.2-1.2h10.3c0.7,0,1.2,0.5,1.2,1.2v1.8
	c0,0.2-0.2,0.4-0.4,0.4c-0.2,0-0.4-0.2-0.4-0.4v-1.8c0-0.2-0.2-0.3-0.3-0.3H4.2c-0.2,0-0.3,0.2-0.3,0.3v10.3c0,0.2,0.2,0.3,0.3,0.3
	h10.3c0.2,0,0.3-0.2,0.3-0.3v-6.7c0-0.2,0.2-0.4,0.4-0.4c0.2,0,0.4,0.2,0.4,0.4v6.7C15.7,21.4,15.2,21.9,14.5,21.9z"/>
<path class="st0" d="M9.4,19.6c-0.5,0-1-0.1-1.4-0.3c-0.2-0.1-0.3-0.3-0.2-0.6c0.1-0.2,0.3-0.3,0.6-0.2c0.4,0.1,0.7,0.2,1.1,0.2
	c1.7,0,3.1-1.4,3.1-3.1c0-1.7-1.4-3.1-3.1-3.1c-1.7,0-3.1,1.4-3.1,3.1c0,0.7,0.3,1.4,0.7,2c0.2,0.2,0.1,0.5-0.1,0.6
	c-0.2,0.2-0.5,0.1-0.6-0.1c-0.6-0.7-0.9-1.6-0.9-2.5c0-2.2,1.8-4,4-4s4,1.8,4,4S11.5,19.6,9.4,19.6z"/>
<path class="st0" d="M23.7,19.6h-1.3c-0.5,0-1-0.4-1-1v-6c0-0.5,0.4-1,1-1h1.3c0.5,0,1,0.4,1,1v6C24.7,19.1,24.3,19.6,23.7,19.6z
	 M22.4,12.5C22.4,12.5,22.3,12.5,22.4,12.5l-0.1,6.1c0,0,0,0.1,0.1,0.1h1.3c0,0,0.1,0,0.1-0.1v-6c0,0,0-0.1-0.1-0.1H22.4z"/>
<path class="st0" d="M8.7,15.6c0,0.3-0.3,0.6-0.6,0.6s-0.6-0.3-0.6-0.6S7.7,15,8.1,15S8.7,15.3,8.7,15.6z"/>
<path class="st0" d="M11.3,15.6c0,0.3-0.3,0.6-0.6,0.6c-0.3,0-0.6-0.3-0.6-0.6s0.3-0.6,0.6-0.6C11,15,11.3,15.3,11.3,15.6z"/>
</svg>
