<?xml version="1.0" encoding="utf-8"?>
<!-- Generator: Adobe Illustrator 20.0.0, SVG Export Plug-In . SVG Version: 6.00 Build 0)  -->
<svg version="1.1" id="Layer_1" xmlns="http://www.w3.org/2000/svg" xmlns:xlink="http://www.w3.org/1999/xlink" x="0px" y="0px"
	 viewBox="0 0 32 32" style="enable-background:new 0 0 32 32;" xml:space="preserve">
<style type="text/css">
	.st0{fill:#F1D521;}
</style>
<path class="st0" d="M31,0.5h-2.1c-0.1,0-0.3,0.1-0.4,0.2L16.3,12.9l-1.4-1.4c-0.2-0.2-0.5-0.2-0.7,0L12.5,13
	c-0.1,0.1-0.2,0.2-0.2,0.4c0,1-0.6,1.9-1.6,2.2l-0.5,0.2c-0.5,0.2-1,0.4-1.3,0.8l-7.1,7.1c-1.8,1.8-1.8,4.6,0,6.4
	c1.8,1.8,4.6,1.8,6.4,0l7.1-7.1c0.4-0.4,0.7-0.8,0.8-1.3l0.2-0.5c0.3-1,1.2-1.6,2.2-1.6c0.1,0,0.3-0.1,0.4-0.2l1.6-1.6
	c0.2-0.2,0.2-0.5,0-0.7l-1.4-1.4L31.4,3.4c0.1-0.1,0.2-0.2,0.2-0.4V1C31.5,0.7,31.3,0.5,31,0.5z M18.4,18.6c-1.4,0.1-2.6,1-3,2.3
	l-0.2,0.5c-0.1,0.3-0.3,0.7-0.6,0.9l-7.1,7.1c-1.4,1.4-3.6,1.4-5,0c-1.4-1.4-1.4-3.6,0-5l7.1-7.1c0.3-0.3,0.6-0.5,0.9-0.6l0.5-0.2
	c1.3-0.4,2.2-1.6,2.3-3l1-1l5,5L18.4,18.6z M18.3,15L17,13.7l9.9-9.9l1.3,1.3L18.3,15z M30.5,2.9l-1.6,1.6l-1.3-1.3l1.6-1.6h1.3V2.9
	z"/>
<path class="st0" d="M10.8,18.9l-6.7,6.7c-0.6,0.6-0.6,1.7,0,2.3c0.6,0.6,1.7,0.6,2.3,0l6.7-6.7c0.3-0.3,0.5-0.7,0.5-1.1
	c0-0.4-0.2-0.8-0.5-1.1C12.4,18.3,11.4,18.3,10.8,18.9z M12.3,20.5l-6.7,6.7c-0.2,0.2-0.6,0.2-0.8,0c-0.2-0.2-0.2-0.6,0-0.8l6.7-6.7
	c0.2-0.2,0.6-0.2,0.8,0c0.1,0.1,0.2,0.3,0.2,0.4C12.5,20.2,12.4,20.4,12.3,20.5z"/>
</svg>
