<?xml version="1.0" encoding="utf-8"?>
<!-- Generator: Adobe Illustrator 20.0.0, SVG Export Plug-In . SVG Version: 6.00 Build 0)  -->
<svg version="1.1" id="Layer_1" xmlns="http://www.w3.org/2000/svg" xmlns:xlink="http://www.w3.org/1999/xlink" x="0px" y="0px"
	 viewBox="0 0 32 32" style="enable-background:new 0 0 32 32;" xml:space="preserve">
<style type="text/css">
	.st0{fill:#F1D521;}
</style>
<g>
	<g>
		<g>
			<path class="st0" d="M27.7,27.2L27.7,27.2v-2h-1v-19c0-3-2.4-5.4-5.4-5.4s-5.4,2.4-5.4,5.4V15c0,0.3-0.2,0.5-0.5,0.5h-3.3
				c-0.8-0.2-1.7-0.4-2.6-0.5v-1.5H5.2V15h-1c-1.9,0-3.4,1.5-3.4,3.4v6.3c0,1.3,1.1,2.4,2.4,2.4H6c0.6,1.4,2,2.4,3.6,2.4
				s3-1,3.6-2.4h4.2c1.3,0,2.4-1.1,2.4-2.4c0-2.5-1.1-4.8-2.8-6.6c1.1-0.4,1.9-1.5,1.9-2.7V6.2c0-1.3,1.1-2.4,2.4-2.4
				c1.3,0,2.4,1.1,2.4,2.4v19h-1v2h-3.4v3.9h11.7v-3.9H27.7z M6.2,14.5h2.4V15H6.2V14.5z M9.6,28.7c-1.6,0-2.9-1.3-2.9-2.9
				c0-1.6,1.3-2.9,2.9-2.9s2.9,1.3,2.9,2.9C12.5,27.4,11.2,28.7,9.6,28.7z M18.9,24.8c0,0.8-0.7,1.5-1.5,1.5h-3.9c0-0.2,0-0.3,0-0.5
				c0-2.2-1.8-3.9-3.9-3.9s-3.9,1.8-3.9,3.9c0,0.2,0,0.3,0,0.5H3.2c-0.8,0-1.5-0.7-1.5-1.5v-6.3c0-1.3,1.1-2.4,2.4-2.4h1h3.4
				C14.4,16,18.9,19.9,18.9,24.8z M21.3,2.8c-1.9,0-3.4,1.5-3.4,3.4v9.3c0,1-0.8,1.9-1.8,1.9c-0.5-0.4-1-0.7-1.5-1h0.8
				c0.8,0,1.5-0.7,1.5-1.5V6.2c0-2.4,2-4.4,4.4-4.4s4.4,2,4.4,4.4v19h-1v-19C24.7,4.4,23.2,2.8,21.3,2.8z M23.8,26.3h2.9v1h-2.9
				V26.3z M30.1,30.2L30.1,30.2h-9.8v-2h2.4h4.9h2.4L30.1,30.2L30.1,30.2z"/>
			<rect x="17.4" y="30.2" class="st0" width="1" height="1"/>
			<rect x="15.5" y="30.2" class="st0" width="1" height="1"/>
			<rect x="13.5" y="30.2" class="st0" width="1" height="1"/>
			<rect x="2.8" y="17.5" class="st0" width="1" height="1"/>
			<rect x="2.8" y="19.4" class="st0" width="1" height="1"/>
			<path class="st0" d="M9.6,23.8c-1.1,0-2,0.9-2,2c0,1.1,0.9,2,2,2s2-0.9,2-2C11.5,24.7,10.7,23.8,9.6,23.8z M9.6,26.7
				c-0.5,0-1-0.4-1-1c0-0.5,0.4-1,1-1c0.5,0,1,0.4,1,1C10.6,26.3,10.1,26.7,9.6,26.7z"/>
		</g>
	</g>
</g>
</svg>
