<?xml version="1.0" encoding="utf-8"?>
<!-- Generator: Adobe Illustrator 20.0.0, SVG Export Plug-In . SVG Version: 6.00 Build 0)  -->
<svg version="1.1" id="Layer_1" xmlns="http://www.w3.org/2000/svg" xmlns:xlink="http://www.w3.org/1999/xlink" x="0px" y="0px"
	 viewBox="0 0 32 32" style="enable-background:new 0 0 32 32;" xml:space="preserve">
<style type="text/css">
	.st0{fill:#F1D521;}
</style>
<g>
	<path class="st0" d="M29.8,6.2H7.6c-0.3,0-0.5,0.2-0.5,0.5c0,0.3,0.2,0.5,0.5,0.5h22.1c0.7,0,1.3,0.6,1.3,1.3v10
		c0,0.7-0.6,1.3-1.3,1.3h-1.1v-3.1c0-0.3-0.2-0.5-0.5-0.5H3.8c-0.3,0-0.5,0.2-0.5,0.5v3.1H2.2c-0.7,0-1.3-0.6-1.3-1.3v-10
		c0-0.7,0.6-1.3,1.3-1.3h3.5c0.3,0,0.5-0.2,0.5-0.5c0-0.3-0.2-0.5-0.5-0.5H2.2C1,6.2,0,7.2,0,8.4v10c0,1.2,1,2.2,2.2,2.2h4.9
		c0.3,0,0.5-0.2,0.5-0.5c0-0.3-0.2-0.5-0.5-0.5H4.3v-0.8H23c0.3,0,0.5-0.2,0.5-0.5S23.2,18,23,18H4.3v-0.8h23.4V18h-2.8
		c-0.3,0-0.5,0.2-0.5,0.5s0.2,0.5,0.5,0.5h2.8v0.8H9c-0.3,0-0.5,0.2-0.5,0.5c0,0.3,0.2,0.5,0.5,0.5h20.7c1.2,0,2.2-1,2.2-2.2v-10
		C32,7.2,31,6.2,29.8,6.2z"/>
	<path class="st0" d="M28.2,10c0.3,0,0.5-0.2,0.5-0.5c0-0.3-0.2-0.5-0.5-0.5h-1.4c-0.3,0-0.5,0.2-0.5,0.5c0,0.3,0.2,0.5,0.5,0.5
		H28.2z"/>
	<path class="st0" d="M24.6,10c0.3,0,0.5-0.2,0.5-0.5c0-0.3-0.2-0.5-0.5-0.5h-8.9c-0.3,0-0.5,0.2-0.5,0.5c0,0.3,0.2,0.5,0.5,0.5
		H24.6z"/>
	<path class="st0" d="M8.8,21.9c-0.3,0-0.5,0.2-0.5,0.5c0,0,0,1.4-1.3,2.3c-0.2,0.2-0.3,0.4-0.1,0.7c0.1,0.1,0.2,0.2,0.4,0.2
		c0.1,0,0.2,0,0.3-0.1c1.7-1.2,1.7-3,1.7-3.1C9.3,22.1,9.1,21.9,8.8,21.9z"/>
	<path class="st0" d="M12.2,21.9c-0.3,0-0.5,0.2-0.5,0.5v2.7c0,0.3,0.2,0.5,0.5,0.5s0.5-0.2,0.5-0.5v-2.7
		C12.7,22.1,12.5,21.9,12.2,21.9z"/>
	<path class="st0" d="M16.1,21.9c-0.3,0-0.5,0.2-0.5,0.5v2.7c0,0.3,0.2,0.5,0.5,0.5c0.3,0,0.5-0.2,0.5-0.5v-2.7
		C16.6,22.1,16.4,21.9,16.1,21.9z"/>
	<path class="st0" d="M25,24.7c-1.3-0.9-1.3-2.3-1.3-2.3c0-0.3-0.2-0.5-0.5-0.5c-0.3,0-0.5,0.2-0.5,0.5c0,0.1,0,1.9,1.7,3.1
		c0.1,0.1,0.2,0.1,0.3,0.1c0.1,0,0.3-0.1,0.4-0.2C25.2,25.2,25.2,24.9,25,24.7z"/>
	<path class="st0" d="M19.8,21.9c-0.3,0-0.5,0.2-0.5,0.5v2.7c0,0.3,0.2,0.5,0.5,0.5c0.3,0,0.5-0.2,0.5-0.5v-2.7
		C20.3,22.1,20.1,21.9,19.8,21.9z"/>
</g>
</svg>
