<?xml version="1.0" encoding="utf-8"?>
<!-- Generator: Adobe Illustrator 20.0.0, SVG Export Plug-In . SVG Version: 6.00 Build 0)  -->
<svg version="1.1" id="Layer_1" xmlns="http://www.w3.org/2000/svg" xmlns:xlink="http://www.w3.org/1999/xlink" x="0px" y="0px"
	 viewBox="0 0 32 32" style="enable-background:new 0 0 32 32;" xml:space="preserve">
<style type="text/css">
	.st0{fill:#F1D521;}
</style>
<path class="st0" d="M31,17.9h-1.7v-1.1c0-0.3-0.3-0.6-0.6-0.6h-3.4c-0.3,0-0.6,0.3-0.6,0.6v1.1H14.4c-0.8,0-1.4-0.6-1.4-1.4V7.8
	h1.1c0.3,0,0.6-0.3,0.6-0.6V3.8c0-0.3-0.3-0.6-0.6-0.6H13V1.6H2.9v1.7H1.8c-0.3,0-0.6,0.3-0.6,0.6v3.4c0,0.3,0.3,0.6,0.6,0.6h1.1v12
	c0,4.5,3.7,8.2,8.2,8.2h13.7v1.1c0,0.3,0.3,0.6,0.6,0.6h3.4c0.3,0,0.6-0.3,0.6-0.6V28H31V17.9z M4,2.7h7.9v0.6H4V2.7z M2.3,6.6V4.4
	h0.6H13h0.6v2.2H13H2.9H2.3z M11.1,26.8c-3.9,0-7.1-3.2-7.1-7.1v-12h7.9v8.7c0,1.4,1.1,2.5,2.5,2.5h10.4v7.9H11.1z M28.2,28.5h-2.2
	V28V17.9v-0.6h2.2v0.6V28V28.5z M29.8,26.8h-0.6V19h0.6V26.8z"/>
</svg>
