<?xml version="1.0" encoding="utf-8"?>
<!-- Generator: Adobe Illustrator 20.0.0, SVG Export Plug-In . SVG Version: 6.00 Build 0)  -->
<svg version="1.1" id="Layer_1" xmlns="http://www.w3.org/2000/svg" xmlns:xlink="http://www.w3.org/1999/xlink" x="0px" y="0px"
	 viewBox="0 0 32 32" style="enable-background:new 0 0 32 32;" xml:space="preserve">
<style type="text/css">
	.st0{fill:#F1D521;}
</style>
<g>
	<path class="st0" d="M30.8,14.5l-3.5-7.8c-0.4-0.9-1.2-1.4-2.2-1.4c-1,0-1.9,0.6-2.2,1.6L20,14.6c-0.3,0.7-0.2,1.6,0.3,2.2
		c0.4,0.6,1.2,1,2,1h2.5v2.4h-1.6c-0.4,0-0.7,0.3-0.7,0.7v5.4c0,1.6,1.3,3,3,3h0c1.6,0,3-1.3,3-3v-5.4c0-0.4-0.3-0.7-0.7-0.7h-1.6
		v-2.4h2.5c0.8,0,1.6-0.4,2-1.1C31.1,16,31.1,15.2,30.8,14.5z M27.1,26.3c0,0.9-0.7,1.6-1.6,1.6h0c-0.9,0-1.6-0.7-1.6-1.6v-4.7h3.3
		V26.3z M29.5,16c-0.2,0.3-0.5,0.5-0.9,0.5h-6.3c-0.4,0-0.7-0.2-0.9-0.5c-0.2-0.3-0.2-0.6-0.1-1l2.9-7.8c0.2-0.5,0.6-0.7,1-0.7
		c0.4,0,0.8,0.2,1,0.6l3.5,7.8C29.7,15.3,29.7,15.7,29.5,16z"/>
	<path class="st0" d="M21,21.6c0.4,0,0.7-0.3,0.7-0.7s-0.3-0.7-0.7-0.7H11c-0.4,0-0.7,0.3-0.7,0.7V28c0,0.4,0.3,0.7,0.7,0.7H21
		c0.4,0,0.7-0.3,0.7-0.7s-0.3-0.7-0.7-0.7h-9.4v-5.7H21z"/>
	<path class="st0" d="M21,18.3h-3.5v-5.7h2.5c0.4,0,0.7-0.3,0.7-0.7s-0.3-0.7-0.7-0.7h-3.2c-0.4,0-0.7,0.3-0.7,0.7V19
		c0,0.4,0.3,0.7,0.7,0.7H21c0.4,0,0.7-0.3,0.7-0.7C21.7,18.6,21.4,18.3,21,18.3z"/>
	<path class="st0" d="M11,10.7h9.3c0.4,0,0.7-0.3,0.7-0.7s-0.3-0.7-0.7-0.7h-8.6V3.6h16.9v4.1c0,0.4,0.3,0.7,0.7,0.7
		c0.4,0,0.7-0.3,0.7-0.7V3c0-0.4-0.3-0.7-0.7-0.7H11c-0.4,0-0.7,0.3-0.7,0.7V10C10.3,10.4,10.6,10.7,11,10.7z"/>
	<path class="st0" d="M15.6,19v-7.1c0-0.4-0.3-0.7-0.7-0.7H1.3c-0.4,0-0.7,0.3-0.7,0.7V19c0,0.4,0.3,0.7,0.7,0.7h13.6
		C15.3,19.7,15.6,19.4,15.6,19z M14.3,18.3H2v-5.7h12.3V18.3z"/>
</g>
</svg>
