<?xml version="1.0" encoding="utf-8"?>
<!-- Generator: Adobe Illustrator 20.0.0, SVG Export Plug-In . SVG Version: 6.00 Build 0)  -->
<svg version="1.1" id="Layer_1" xmlns="http://www.w3.org/2000/svg" xmlns:xlink="http://www.w3.org/1999/xlink" x="0px" y="0px"
	 viewBox="0 0 32 32" style="enable-background:new 0 0 32 32;" xml:space="preserve">
<style type="text/css">
	.st0{fill:#F1D521;}
</style>
<g>
	<g>
		<path class="st0" d="M16,0.5C7.5,0.5,0.5,7.4,0.5,15.9S7.5,31.4,16,31.4s15.5-6.9,15.5-15.5C31.5,7.4,24.5,0.5,16,0.5z M16,28.9
			c-7.2,0-13-5.8-13-13C3,8.8,8.8,3,16,3s13,5.8,13,13S23.2,28.9,16,28.9z"/>
		<path class="st0" d="M20.9,11l-7.2,7.2l-2.6-2.6c-0.5-0.5-1.3-0.5-1.8,0c-0.5,0.5-0.5,1.3,0,1.8l3.5,3.5c0.2,0.2,0.6,0.4,0.9,0.4
			s0.6-0.1,0.9-0.4l8.1-8.1c0.5-0.5,0.5-1.3,0-1.8C22.2,10.5,21.4,10.5,20.9,11z"/>
	</g>
</g>
</svg>
