<?xml version="1.0" encoding="utf-8"?>
<!-- Generator: Adobe Illustrator 20.0.0, SVG Export Plug-In . SVG Version: 6.00 Build 0)  -->
<svg version="1.1" id="Layer_1" xmlns="http://www.w3.org/2000/svg" xmlns:xlink="http://www.w3.org/1999/xlink" x="0px" y="0px"
	 viewBox="0 0 32 32" style="enable-background:new 0 0 32 32;" xml:space="preserve">
<style type="text/css">
	.st0{fill:#F1D520;}
</style>
<g>
	<g>
		<path class="st0" d="M31.1,19.5L29.8,16l1.3-3.5c0.1-0.4,0-0.8-0.3-1.1l-2.9-2.3l-0.6-3.7C27.3,5,27,4.7,26.6,4.6l-3.7-0.6
			l-2.3-2.9c-0.3-0.3-0.7-0.4-1.1-0.3L16,2.2l-3.5-1.3c-0.4-0.1-0.8,0-1.1,0.3L9.1,4.1L5.4,4.6C5,4.7,4.7,5,4.6,5.4L4.1,9.1
			l-2.9,2.3c-0.3,0.3-0.4,0.7-0.3,1.1L2.2,16l-1.3,3.5c-0.1,0.4,0,0.8,0.3,1.1l2.9,2.3l0.6,3.7C4.7,27,5,27.3,5.4,27.4l3.7,0.6
			l2.3,2.9c0.3,0.3,0.7,0.4,1.1,0.3l3.5-1.3l3.5,1.3c0.1,0,0.2,0.1,0.3,0.1c0.3,0,0.6-0.1,0.7-0.4l2.3-2.9l3.7-0.6
			c0.4-0.1,0.7-0.4,0.8-0.8l0.6-3.7l2.9-2.3C31.1,20.3,31.3,19.9,31.1,19.5z M27.9,16.3l1.2,3.2l-2.6,2.1c-0.2,0.1-0.3,0.4-0.3,0.6
			l-0.5,3.4l-3.4,0.5c-0.2,0-0.4,0.2-0.6,0.3l-2.1,2.6l-3.2-1.2c-0.1,0-0.2-0.1-0.3-0.1c-0.1,0-0.2,0-0.3,0.1l-3.2,1.2l-2.1-2.6
			c-0.1-0.2-0.4-0.3-0.6-0.3l-3.4-0.5l-0.5-3.4c0-0.2-0.2-0.4-0.3-0.6l-2.6-2.1l1.2-3.2c0.1-0.2,0.1-0.5,0-0.7l-1.2-3.2l2.6-2.1
			c0.2-0.1,0.3-0.4,0.3-0.6l0.5-3.4l3.4-0.5c0.2,0,0.4-0.2,0.6-0.3l2.1-2.6l3.2,1.2c0.2,0.1,0.5,0.1,0.7,0l3.2-1.2l2.1,2.6
			c0.1,0.2,0.4,0.3,0.6,0.3l3.4,0.5l0.5,3.4c0,0.2,0.2,0.4,0.3,0.6l2.6,2.1l-1.2,3.2C27.8,15.9,27.8,16.1,27.9,16.3z"/>
	</g>
</g>
<g>
	<g>
		<path class="st0" d="M13.2,8.4c-1.6,0-2.8,1.3-2.8,2.8s1.3,2.8,2.8,2.8s2.8-1.3,2.8-2.8S14.7,8.4,13.2,8.4z M13.2,12.2
			c-0.5,0-0.9-0.4-0.9-0.9c0-0.5,0.4-0.9,0.9-0.9c0.5,0,0.9,0.4,0.9,0.9C14.1,11.8,13.7,12.2,13.2,12.2z"/>
	</g>
</g>
<g>
	<g>
		<path class="st0" d="M18.8,17.9c-1.6,0-2.8,1.3-2.8,2.8s1.3,2.8,2.8,2.8c1.6,0,2.8-1.3,2.8-2.8S20.4,17.9,18.8,17.9z M18.8,21.7
			c-0.5,0-0.9-0.4-0.9-0.9c0-0.5,0.4-0.9,0.9-0.9c0.5,0,0.9,0.4,0.9,0.9C19.8,21.3,19.4,21.7,18.8,21.7z"/>
	</g>
</g>
<g>
	<g>
		<path class="st0" d="M21.3,8.6c-0.4-0.3-1-0.2-1.3,0.2l-9.5,13.3c-0.3,0.4-0.2,1,0.2,1.3c0.2,0.1,0.4,0.2,0.6,0.2
			c0.3,0,0.6-0.1,0.8-0.4l9.5-13.3C21.8,9.5,21.7,8.9,21.3,8.6z"/>
	</g>
</g>
</svg>
