<?xml version="1.0" encoding="utf-8"?>
<!-- Generator: Adobe Illustrator 20.0.0, SVG Export Plug-In . SVG Version: 6.00 Build 0)  -->
<svg version="1.1" id="Layer_1" xmlns="http://www.w3.org/2000/svg" xmlns:xlink="http://www.w3.org/1999/xlink" x="0px" y="0px"
	 viewBox="0 0 32 32" style="enable-background:new 0 0 32 32;" xml:space="preserve">
<style type="text/css">
	.st0{fill:#F1D520;}
</style>
<g>
	<g>
		<g>
			<path class="st0" d="M29.2,8l-7.6-7.6c-0.1-0.1-0.3-0.2-0.5-0.2H6.6c-1.7,0-3.1,1.4-3.1,3.1v25.3c0,1.7,1.4,3.1,3.1,3.1h19.7
				c1.7,0,3.1-1.4,3.1-3.1V8.5C29.4,8.3,29.4,8.2,29.2,8z M21.8,2.4l5.4,5.4h-3.6c-0.5,0-1-0.2-1.3-0.5C22,7,21.8,6.5,21.8,6V2.4z
				 M28.1,28.6c0,1-0.8,1.8-1.8,1.8H6.6c-1,0-1.8-0.8-1.8-1.8V3.4c0-1,0.8-1.8,1.8-1.8h14V6c0,0.8,0.3,1.6,0.9,2.2
				c0.6,0.6,1.4,0.9,2.2,0.9h4.5L28.1,28.6L28.1,28.6z"/>
		</g>
	</g>
	<g>
		<g>
			<path class="st0" d="M9.8,18.9H9.5c-0.4,0-0.6,0.3-0.6,0.6s0.3,0.6,0.6,0.6h0.3c0.4,0,0.6-0.3,0.6-0.6S10.1,18.9,9.8,18.9z"/>
		</g>
	</g>
	<g>
		<g>
			<path class="st0" d="M23.4,18.9H11.8c-0.4,0-0.6,0.3-0.6,0.6s0.3,0.6,0.6,0.6h11.5c0.4,0,0.6-0.3,0.6-0.6S23.7,18.9,23.4,18.9z"
				/>
		</g>
	</g>
	<g>
		<g>
			<path class="st0" d="M9.8,16H9.5c-0.4,0-0.6,0.3-0.6,0.6c0,0.4,0.3,0.6,0.6,0.6h0.3c0.4,0,0.6-0.3,0.6-0.6
				C10.4,16.3,10.1,16,9.8,16z"/>
		</g>
	</g>
	<g>
		<g>
			<path class="st0" d="M23.4,16H11.8c-0.4,0-0.6,0.3-0.6,0.6c0,0.4,0.3,0.6,0.6,0.6h11.5c0.4,0,0.6-0.3,0.6-0.6
				C24,16.3,23.7,16,23.4,16z"/>
		</g>
	</g>
	<g>
		<g>
			<path class="st0" d="M9.8,13.1H9.5c-0.4,0-0.6,0.3-0.6,0.6c0,0.4,0.3,0.6,0.6,0.6h0.3c0.4,0,0.6-0.3,0.6-0.6
				C10.4,13.3,10.1,13.1,9.8,13.1z"/>
		</g>
	</g>
	<g>
		<g>
			<path class="st0" d="M23.4,13.1H11.8c-0.4,0-0.6,0.3-0.6,0.6c0,0.4,0.3,0.6,0.6,0.6h11.5c0.4,0,0.6-0.3,0.6-0.6
				C24,13.3,23.7,13.1,23.4,13.1z"/>
		</g>
	</g>
</g>
</svg>
